<svg width="552" height="280" viewBox="0 0 552 280" fill="none" xmlns="http://www.w3.org/2000/svg">
<g clip-path="url(#clip0_334_2332)">
<rect width="552" height="280" fill="#D80E22"/>
<mask id="mask0_334_2332" style="mask-type:alpha" maskUnits="userSpaceOnUse" x="330" y="-341" width="419" height="745">
<path d="M330.565 342.542L582.356 403.802L748.571 -279.379L496.781 -340.638L330.565 342.542Z" fill="#C4C4C4"/>
</mask>
<g mask="url(#mask0_334_2332)">
<path fill-rule="evenodd" clip-rule="evenodd" d="M910.656 116.006L272.547 302.914L282.97 338.496L921.078 151.588L910.656 116.006Z" fill="white"/>
<path fill-rule="evenodd" clip-rule="evenodd" d="M858.544 -61.9052L220.435 125.003L230.857 160.585L868.966 -26.323L858.544 -61.9052Z" fill="white"/>
<path fill-rule="evenodd" clip-rule="evenodd" d="M889.811 44.8418L251.703 231.75L262.125 267.332L900.234 80.4241L889.811 44.8418Z" fill="white"/>
<path fill-rule="evenodd" clip-rule="evenodd" d="M837.699 -133.07L199.59 53.8376L210.013 89.4199L848.121 -97.488L837.699 -133.07Z" fill="white"/>
<path fill-rule="evenodd" clip-rule="evenodd" d="M816.854 -204.234L178.746 -17.3264L189.168 18.2559L827.276 -168.652L816.854 -204.234Z" fill="white"/>
</g>
<mask id="mask1_334_2332" style="mask-type:alpha" maskUnits="userSpaceOnUse" x="-163" y="-146" width="419" height="746">
<path d="M-162.734 538.157L89.0558 599.417L255.271 -83.7632L3.48115 -145.023L-162.734 538.157Z" fill="#C4C4C4"/>
</mask>
<g mask="url(#mask1_334_2332)">
<path fill-rule="evenodd" clip-rule="evenodd" d="M365.245 133.71L-272.864 320.618L-262.441 356.2L375.667 169.292L365.245 133.71Z" fill="white"/>
<path fill-rule="evenodd" clip-rule="evenodd" d="M396.511 240.456L-241.597 427.364L-231.175 462.946L406.934 276.038L396.511 240.456Z" fill="white"/>
<path fill-rule="evenodd" clip-rule="evenodd" d="M344.399 62.545L-293.709 249.453L-283.287 285.035L354.821 98.1272L344.399 62.545Z" fill="white"/>
<path fill-rule="evenodd" clip-rule="evenodd" d="M323.554 -8.61908L-314.554 178.289L-304.132 213.871L333.977 26.9632L323.554 -8.61908Z" fill="white"/>
<path fill-rule="evenodd" clip-rule="evenodd" d="M302.71 -79.7831L-335.399 107.125L-324.977 142.707L313.132 -44.2009L302.71 -79.7831Z" fill="white"/>
</g>
<mask id="mask2_334_2332" style="mask-type:alpha" maskUnits="userSpaceOnUse" x="111" y="-322" width="254" height="842">
<path d="M111.482 506.737L162.797 519.222L364.33 -309.118L313.015 -321.603L111.482 506.737Z" fill="#C4C4C4"/>
</mask>
<g mask="url(#mask2_334_2332)">
<path fill-rule="evenodd" clip-rule="evenodd" d="M406.096 40.3411L45.9083 515.598L65.4492 518.629L425.637 43.3716L406.096 40.3411Z" fill="white"/>
<path fill-rule="evenodd" clip-rule="evenodd" d="M376.288 -61.4235L16.1007 413.834L35.6416 416.864L395.829 -58.3929L376.288 -61.4235Z" fill="white"/>
<path fill-rule="evenodd" clip-rule="evenodd" d="M394.173 -0.363933L33.9854 474.893L53.5264 477.924L413.714 2.66665L394.173 -0.363933Z" fill="white"/>
<path fill-rule="evenodd" clip-rule="evenodd" d="M364.365 -102.132L4.17685 373.126L23.7178 376.156L383.905 -99.101L364.365 -102.132Z" fill="white"/>
<path fill-rule="evenodd" clip-rule="evenodd" d="M352.441 -142.838L-7.74698 332.42L11.7939 335.45L371.982 -139.807L352.441 -142.838Z" fill="white"/>
<path fill-rule="evenodd" clip-rule="evenodd" d="M340.435 -183.827L-19.7528 291.43L-0.211914 294.461L359.976 -180.796L340.435 -183.827Z" fill="white"/>
</g>
<mask id="mask3_334_2332" style="mask-type:alpha" maskUnits="userSpaceOnUse" x="185" y="-259" width="286" height="714">
<path d="M185.31 425.14L304.036 454.025L470.252 -229.155L351.525 -258.041L185.31 425.14Z" fill="#C4C4C4"/>
</mask>
<g mask="url(#mask3_334_2332)">
<path fill-rule="evenodd" clip-rule="evenodd" d="M632.342 166.231L-5.76612 353.138L4.65625 388.721L642.765 201.813L632.342 166.231Z" fill="white"/>
<path fill-rule="evenodd" clip-rule="evenodd" d="M580.23 -11.6806L-57.8784 175.227L-47.4561 210.81L590.652 23.9017L580.23 -11.6806Z" fill="white"/>
<path fill-rule="evenodd" clip-rule="evenodd" d="M611.498 95.0655L-26.6108 281.973L-16.1885 317.556L621.92 130.648L611.498 95.0655Z" fill="white"/>
<path fill-rule="evenodd" clip-rule="evenodd" d="M559.385 -82.8456L-78.7232 104.062L-68.3008 139.645L569.808 -47.2634L559.385 -82.8456Z" fill="white"/>
<path fill-rule="evenodd" clip-rule="evenodd" d="M538.541 -154.01L-99.5679 32.8982L-89.1455 68.4805L548.963 -118.427L538.541 -154.01Z" fill="white"/>
</g>
</g>
<defs>
<clipPath id="clip0_334_2332">
<rect width="552" height="280" fill="white"/>
</clipPath>
</defs>
</svg>
