<svg width="240" height="240" viewBox="0 0 240 240" fill="none" xmlns="http://www.w3.org/2000/svg">
<g clip-path="url(#clip0_334_2334)">
<rect width="240" height="240" rx="120" fill="#D80E22"/>
<mask id="mask0_334_2334" style="mask-type:alpha" maskUnits="userSpaceOnUse" x="100" y="-457" width="401" height="743">
<path d="M247.307 285.109L500.746 231.076L354.136 -456.579L100.697 -402.545L247.307 285.109Z" fill="#C4C4C4"/>
</mask>
<g mask="url(#mask0_334_2334)">
<path fill-rule="evenodd" clip-rule="evenodd" d="M671.698 -170.65L177.841 274.573L202.668 302.111L696.524 -143.111L671.698 -170.65Z" fill="white"/>
<path fill-rule="evenodd" clip-rule="evenodd" d="M547.565 -308.342L53.7086 136.881L78.5352 164.419L572.391 -280.804L547.565 -308.342Z" fill="white"/>
<path fill-rule="evenodd" clip-rule="evenodd" d="M622.044 -225.727L128.188 219.496L153.015 247.034L646.871 -198.188L622.044 -225.727Z" fill="white"/>
<path fill-rule="evenodd" clip-rule="evenodd" d="M497.911 -363.419L4.05527 81.8033L28.8818 109.342L522.738 -335.881L497.911 -363.419Z" fill="white"/>
<path fill-rule="evenodd" clip-rule="evenodd" d="M448.258 -418.496L-45.598 26.7262L-20.7715 54.2646L473.085 -390.958L448.258 -418.496Z" fill="white"/>
</g>
<mask id="mask1_334_2334" style="mask-type:alpha" maskUnits="userSpaceOnUse" x="-259" y="-67" width="401" height="743">
<path d="M-112.3 675.357L141.139 621.324L-5.46995 -66.3307L-258.909 -12.2969L-112.3 675.357Z" fill="#C4C4C4"/>
</mask>
<g mask="url(#mask1_334_2334)">
<path fill-rule="evenodd" clip-rule="evenodd" d="M312.091 219.598L-181.765 664.821L-156.938 692.359L336.918 247.137L312.091 219.598Z" fill="white"/>
<path fill-rule="evenodd" clip-rule="evenodd" d="M187.958 81.9059L-305.898 527.129L-281.071 554.667L212.785 109.444L187.958 81.9059Z" fill="white"/>
<path fill-rule="evenodd" clip-rule="evenodd" d="M262.438 164.521L-231.418 609.744L-206.592 637.282L287.264 192.06L262.438 164.521Z" fill="white"/>
<path fill-rule="evenodd" clip-rule="evenodd" d="M138.305 26.8288L-355.551 472.051L-330.725 499.59L163.132 54.3672L138.305 26.8288Z" fill="white"/>
<path fill-rule="evenodd" clip-rule="evenodd" d="M88.6517 -28.2483L-405.204 416.974L-380.378 444.513L113.478 -0.709906L88.6517 -28.2483Z" fill="white"/>
<path fill-rule="evenodd" clip-rule="evenodd" d="M38.9984 -83.3245L-454.858 361.898L-430.031 389.437L63.8249 -55.7861L38.9984 -83.3245Z" fill="white"/>
</g>
<mask id="mask2_334_2334" style="mask-type:alpha" maskUnits="userSpaceOnUse" x="-57" y="-317" width="230" height="846">
<path d="M121.141 528.089L172.791 517.077L-4.96903 -316.688L-56.6198 -305.676L121.141 528.089Z" fill="#C4C4C4"/>
</mask>
<g mask="url(#mask2_334_2334)">
<path fill-rule="evenodd" clip-rule="evenodd" d="M184.261 -19.9419L65.9011 564.52L84.8223 558.773L203.182 -25.6884L184.261 -19.9419Z" fill="white"/>
<path fill-rule="evenodd" clip-rule="evenodd" d="M113.258 -98.7016L-5.10182 485.76L13.8193 480.014L132.179 -104.448L113.258 -98.7016Z" fill="white"/>
<path fill-rule="evenodd" clip-rule="evenodd" d="M155.86 -51.4448L37.5007 533.017L56.4219 527.271L174.781 -57.1913L155.86 -51.4448Z" fill="white"/>
<path fill-rule="evenodd" clip-rule="evenodd" d="M84.8543 -130.208L-33.5051 454.254L-14.584 448.508L103.775 -135.954L84.8543 -130.208Z" fill="white"/>
<path fill-rule="evenodd" clip-rule="evenodd" d="M56.4539 -161.71L-61.9055 422.751L-42.9844 417.005L75.3751 -167.457L56.4539 -161.71Z" fill="white"/>
<path fill-rule="evenodd" clip-rule="evenodd" d="M27.8543 -193.434L-90.5051 391.028L-71.584 385.281L46.7755 -199.181L27.8543 -193.434Z" fill="white"/>
</g>
<mask id="mask3_334_2334" style="mask-type:alpha" maskUnits="userSpaceOnUse" x="5" y="-291" width="267" height="714">
<path d="M152.262 422.544L271.766 397.065L125.156 -290.589L5.65235 -265.11L152.262 422.544Z" fill="#C4C4C4"/>
</mask>
<g mask="url(#mask3_334_2334)">
<path fill-rule="evenodd" clip-rule="evenodd" d="M442.722 -4.66237L-51.1341 440.56L-26.3076 468.099L467.548 22.8761L442.722 -4.66237Z" fill="white"/>
<path fill-rule="evenodd" clip-rule="evenodd" d="M318.59 -142.355L-175.266 302.868L-150.439 330.406L343.417 -114.816L318.59 -142.355Z" fill="white"/>
<path fill-rule="evenodd" clip-rule="evenodd" d="M393.07 -59.7395L-100.786 385.483L-75.96 413.021L417.896 -32.2011L393.07 -59.7395Z" fill="white"/>
<path fill-rule="evenodd" clip-rule="evenodd" d="M268.937 -197.432L-224.919 247.791L-200.093 275.329L293.763 -169.893L268.937 -197.432Z" fill="white"/>
<path fill-rule="evenodd" clip-rule="evenodd" d="M219.284 -252.508L-274.573 192.714L-249.746 220.253L244.11 -224.97L219.284 -252.508Z" fill="white"/>
<path fill-rule="evenodd" clip-rule="evenodd" d="M169.631 -307.586L-324.225 137.636L-299.398 165.175L194.458 -280.048L169.631 -307.586Z" fill="white"/>
</g>
</g>
<defs>
<clipPath id="clip0_334_2334">
<rect width="240" height="240" rx="120" fill="white"/>
</clipPath>
</defs>
</svg>
