<svg width="552" height="280" viewBox="0 0 552 280" fill="none" xmlns="http://www.w3.org/2000/svg">
<g clip-path="url(#clip0_234_4673)">
<mask id="mask0_234_4673" style="mask-type:alpha" maskUnits="userSpaceOnUse" x="330" y="-341" width="419" height="745">
<rect width="259.135" height="703.109" transform="matrix(0.971656 0.236401 0.236401 -0.971656 330.565 342.542)" fill="#C4C4C4"/>
</mask>
<g mask="url(#mask0_234_4673)">
<path d="M277.759 320.705L915.867 133.797" stroke="#F5F5F5" stroke-width="44.9099"/>
<path d="M225.646 142.794L863.755 -44.114" stroke="#F5F5F5" stroke-width="44.9099"/>
<path d="M256.914 249.541L895.023 62.6331" stroke="#F5F5F5" stroke-width="44.9099"/>
<path d="M204.802 71.6289L842.91 -115.279" stroke="#F5F5F5" stroke-width="44.9099"/>
<path d="M183.957 0.464844L822.066 -186.443" stroke="#F5F5F5" stroke-width="44.9099"/>
</g>
<mask id="mask1_234_4673" style="mask-type:alpha" maskUnits="userSpaceOnUse" x="-163" y="-146" width="419" height="746">
<rect width="259.135" height="703.109" transform="matrix(0.971656 0.236401 0.236401 -0.971656 -162.734 538.157)" fill="#C4C4C4"/>
</mask>
<g mask="url(#mask1_234_4673)">
<path d="M-267.653 338.409L370.455 151.501" stroke="#F5F5F5" stroke-width="44.9099"/>
<path d="M-236.386 445.156L401.723 258.248" stroke="#F5F5F5" stroke-width="44.9099"/>
<path d="M-288.498 267.244L349.61 80.3362" stroke="#F5F5F5" stroke-width="44.9099"/>
<path d="M-309.343 196.08L328.766 9.17216" stroke="#F5F5F5" stroke-width="44.9099"/>
<path d="M-330.188 124.915L307.921 -61.9929" stroke="#F5F5F5" stroke-width="44.9099"/>
</g>
<mask id="mask2_234_4673" style="mask-type:alpha" maskUnits="userSpaceOnUse" x="111" y="-322" width="254" height="842">
<rect width="52.8116" height="852.504" transform="matrix(0.971656 0.236401 0.236401 -0.971656 111.482 506.737)" fill="#C4C4C4"/>
</mask>
<g mask="url(#mask2_234_4673)">
<path d="M55.6787 517.113L415.866 41.856" stroke="#F5F5F5" stroke-width="23.9519"/>
<path d="M25.8711 415.35L386.059 -59.9077" stroke="#F5F5F5" stroke-width="23.9519"/>
<path d="M43.7559 476.408L403.944 1.15096" stroke="#F5F5F5" stroke-width="23.9519"/>
<path d="M13.9473 374.641L374.135 -100.617" stroke="#F5F5F5" stroke-width="23.9519"/>
<path d="M2.02441 333.935L362.212 -141.323" stroke="#F5F5F5" stroke-width="23.9519"/>
<path d="M-9.98242 292.946L350.205 -182.311" stroke="#F5F5F5" stroke-width="23.9519"/>
</g>
<mask id="mask3_234_4673" style="mask-type:alpha" maskUnits="userSpaceOnUse" x="185" y="-259" width="286" height="714">
<rect width="122.19" height="703.109" transform="matrix(0.971656 0.236401 0.236401 -0.971656 185.31 425.14)" fill="#C4C4C4"/>
</mask>
<g mask="url(#mask3_234_4673)">
<path d="M-0.554688 370.93L637.554 184.022" stroke="#F5F5F5" stroke-width="44.9099"/>
<path d="M-52.667 193.018L585.442 6.10964" stroke="#F5F5F5" stroke-width="44.9099"/>
<path d="M-21.3994 299.765L616.709 112.857" stroke="#F5F5F5" stroke-width="44.9099"/>
<path d="M-73.5117 121.854L564.597 -65.0544" stroke="#F5F5F5" stroke-width="44.9099"/>
<path d="M-94.3555 50.6885L543.753 -136.219" stroke="#F5F5F5" stroke-width="44.9099"/>
<path d="M-115.2 -20.4756L522.908 -207.384" stroke="#F5F5F5" stroke-width="44.9099"/>
</g>
<g clip-path="url(#clip1_234_4673)">
<rect x="156" y="20" width="240" height="240" rx="120" fill="#D80E22"/>
<mask id="mask4_234_4673" style="mask-type:alpha" maskUnits="userSpaceOnUse" x="256" y="-437" width="401" height="743">
<rect width="259.135" height="703.109" transform="matrix(0.978019 -0.208516 -0.208516 -0.978019 403.307 305.109)" fill="#C4C4C4"/>
</mask>
<g mask="url(#mask4_234_4673)">
<path d="M346.254 308.342L840.11 -136.881" stroke="#F5F5F5" stroke-width="44.9099"/>
<path d="M222.122 170.649L715.978 -274.573" stroke="#F5F5F5" stroke-width="44.9099"/>
<path d="M296.601 253.265L790.457 -191.958" stroke="#F5F5F5" stroke-width="44.9099"/>
<path d="M172.469 115.572L666.325 -329.65" stroke="#F5F5F5" stroke-width="44.9099"/>
<path d="M122.815 60.4961L616.672 -384.727" stroke="#F5F5F5" stroke-width="44.9099"/>
</g>
<mask id="mask5_234_4673" style="mask-type:alpha" maskUnits="userSpaceOnUse" x="-103" y="-47" width="401" height="743">
<rect width="259.135" height="703.109" transform="matrix(0.978019 -0.208516 -0.208516 -0.978019 43.7002 695.357)" fill="#C4C4C4"/>
</mask>
<g mask="url(#mask5_234_4673)">
<path d="M-13.3525 698.59L480.504 253.367" stroke="#F5F5F5" stroke-width="44.9099"/>
<path d="M-137.484 560.898L356.372 115.676" stroke="#F5F5F5" stroke-width="44.9099"/>
<path d="M-63.0059 643.513L430.85 198.29" stroke="#F5F5F5" stroke-width="44.9099"/>
<path d="M-187.138 505.82L306.718 60.5977" stroke="#F5F5F5" stroke-width="44.9099"/>
<path d="M-236.791 450.744L257.065 5.52155" stroke="#F5F5F5" stroke-width="44.9099"/>
<path d="M-286.444 395.667L207.412 -49.5556" stroke="#F5F5F5" stroke-width="44.9099"/>
</g>
<mask id="mask6_234_4673" style="mask-type:alpha" maskUnits="userSpaceOnUse" x="99" y="-297" width="230" height="846">
<rect width="52.8116" height="852.504" transform="matrix(0.978019 -0.208516 -0.208516 -0.978019 277.141 548.089)" fill="#C4C4C4"/>
</mask>
<g mask="url(#mask6_234_4673)">
<path d="M231.362 581.646L349.722 -2.81535" stroke="#F5F5F5" stroke-width="23.9519"/>
<path d="M160.358 502.888L278.718 -81.5742" stroke="#F5F5F5" stroke-width="23.9519"/>
<path d="M202.961 550.144L321.32 -34.3183" stroke="#F5F5F5" stroke-width="23.9519"/>
<path d="M131.956 471.382L250.316 -113.08" stroke="#F5F5F5" stroke-width="23.9519"/>
<path d="M103.555 439.878L221.914 -144.584" stroke="#F5F5F5" stroke-width="23.9519"/>
<path d="M74.9551 408.154L193.315 -176.308" stroke="#F5F5F5" stroke-width="23.9519"/>
</g>
<mask id="mask7_234_4673" style="mask-type:alpha" maskUnits="userSpaceOnUse" x="161" y="-271" width="267" height="714">
<rect width="122.19" height="703.109" transform="matrix(0.978019 -0.208516 -0.208516 -0.978019 308.262 442.544)" fill="#C4C4C4"/>
</mask>
<g mask="url(#mask7_234_4673)">
<path d="M117.279 474.329L611.136 29.1065" stroke="#F5F5F5" stroke-width="44.9099"/>
<path d="M-6.85352 336.637L487.003 -108.586" stroke="#F5F5F5" stroke-width="44.9099"/>
<path d="M67.627 419.253L561.483 -25.9697" stroke="#F5F5F5" stroke-width="44.9099"/>
<path d="M-56.5068 281.561L437.349 -163.662" stroke="#F5F5F5" stroke-width="44.9099"/>
<path d="M-106.159 226.483L387.697 -218.739" stroke="#F5F5F5" stroke-width="44.9099"/>
<path d="M-155.812 171.406L338.044 -273.816" stroke="#F5F5F5" stroke-width="44.9099"/>
</g>
</g>
</g>
<defs>
<clipPath id="clip0_234_4673">
<rect width="552" height="280" fill="white"/>
</clipPath>
<clipPath id="clip1_234_4673">
<rect x="156" y="20" width="240" height="240" rx="120" fill="white"/>
</clipPath>
</defs>
</svg>
