<svg width="1344" height="728" viewBox="0 0 1344 728" fill="none" xmlns="http://www.w3.org/2000/svg">
<g clip-path="url(#clip0_205_4046)">
<g clip-path="url(#clip1_205_4046)">
<rect width="1210" height="574.898" transform="translate(589.795 -310) rotate(15)" fill="#D80E22"/>
<mask id="mask0_205_4046" style="mask-type:alpha" maskUnits="userSpaceOnUse" x="265" y="-1133" width="1492" height="1475">
<rect x="659.517" y="341.664" width="564.699" height="1532.19" transform="rotate(-134.256 659.517 341.664)" fill="#C4C4C4"/>
</mask>
<g mask="url(#mask0_205_4046)">
<path d="M759.029 416.521L402.222 -987.83" stroke="#F5F5F5" stroke-width="97.8662"/>
<path d="M1150.58 317.04L793.77 -1087.31" stroke="#F5F5F5" stroke-width="97.8662"/>
<path d="M915.649 376.729L558.842 -1027.62" stroke="#F5F5F5" stroke-width="97.8662"/>
<path d="M1307.2 277.248L950.389 -1127.1" stroke="#F5F5F5" stroke-width="97.8662"/>
<path d="M1463.82 237.455L1107.01 -1166.9" stroke="#F5F5F5" stroke-width="97.8662"/>
</g>
<mask id="mask1_205_4046" style="mask-type:alpha" maskUnits="userSpaceOnUse" x="445" y="10" width="1492" height="1474">
<rect x="839.442" y="1484" width="564.699" height="1532.19" transform="rotate(-134.256 839.442 1484)" fill="#C4C4C4"/>
</mask>
<g mask="url(#mask1_205_4046)">
<path d="M938.955 1558.86L582.148 154.506" stroke="#F5F5F5" stroke-width="97.8662"/>
<path d="M1330.5 1459.38L973.696 55.0247" stroke="#F5F5F5" stroke-width="97.8662"/>
<path d="M1095.58 1519.07L738.768 114.714" stroke="#F5F5F5" stroke-width="97.8662"/>
<path d="M1487.12 1419.58L1130.31 15.2327" stroke="#F5F5F5" stroke-width="97.8662"/>
<path d="M1643.74 1379.79L1286.93 -24.5602" stroke="#F5F5F5" stroke-width="97.8662"/>
</g>
<mask id="mask2_205_4046" style="mask-type:alpha" maskUnits="userSpaceOnUse" x="514" y="-445" width="1411" height="1380">
<rect x="594.371" y="934.717" width="115.085" height="1857.75" transform="rotate(-134.256 594.371 934.717)" fill="#C4C4C4"/>
</mask>
<g mask="url(#mask2_205_4046)">
<path d="M636.771 1050.91L1129.05 -151.728" stroke="#F5F5F5" stroke-width="52.1953"/>
<path d="M860.735 994.012L1353.01 -208.63" stroke="#F5F5F5" stroke-width="52.1953"/>
<path d="M726.356 1028.15L1218.64 -174.489" stroke="#F5F5F5" stroke-width="52.1953"/>
<path d="M950.326 971.248L1442.61 -231.394" stroke="#F5F5F5" stroke-width="52.1953"/>
<path d="M1039.91 948.487L1532.19 -254.155" stroke="#F5F5F5" stroke-width="52.1953"/>
<path d="M1130.12 925.567L1622.4 -277.075" stroke="#F5F5F5" stroke-width="52.1953"/>
</g>
<mask id="mask3_205_4046" style="mask-type:alpha" maskUnits="userSpaceOnUse" x="479" y="-555" width="1285" height="1261">
<rect x="665.6" y="705.75" width="266.272" height="1532.19" transform="rotate(-134.256 665.6 705.75)" fill="#C4C4C4"/>
</mask>
<g mask="url(#mask3_205_4046)">
<path d="M973.365 994.34L616.558 -410.012" stroke="#F5F5F5" stroke-width="97.8662"/>
<path d="M1364.91 894.858L1008.11 -509.493" stroke="#F5F5F5" stroke-width="97.8662"/>
<path d="M1129.99 954.549L773.178 -449.803" stroke="#F5F5F5" stroke-width="97.8662"/>
<path d="M1521.53 855.065L1164.73 -549.286" stroke="#F5F5F5" stroke-width="97.8662"/>
<path d="M1678.15 815.272L1321.35 -589.079" stroke="#F5F5F5" stroke-width="97.8662"/>
</g>
</g>
<g clip-path="url(#clip2_205_4046)">
<rect width="1210" height="574.898" transform="translate(-415.205 -454) rotate(15)" fill="#D80E22"/>
<mask id="mask4_205_4046" style="mask-type:alpha" maskUnits="userSpaceOnUse" x="-676" y="-1355" width="1492" height="1475">
<rect x="-281.646" y="119.24" width="564.699" height="1532.19" transform="rotate(-134.256 -281.646 119.24)" fill="#C4C4C4"/>
</mask>
<g mask="url(#mask4_205_4046)">
<path d="M209.415 94.6162L-147.392 -1309.74" stroke="#F5F5F5" stroke-width="97.8662"/>
<path d="M-25.5127 154.306L-382.32 -1250.05" stroke="#F5F5F5" stroke-width="97.8662"/>
<path d="M366.034 54.8242L9.22701 -1349.53" stroke="#F5F5F5" stroke-width="97.8662"/>
<path d="M522.653 15.0312L165.846 -1389.32" stroke="#F5F5F5" stroke-width="97.8662"/>
</g>
<mask id="mask5_205_4046" style="mask-type:alpha" maskUnits="userSpaceOnUse" x="-496" y="-213" width="1492" height="1475">
<rect x="-101.72" y="1261.58" width="564.699" height="1532.19" transform="rotate(-134.256 -101.72 1261.58)" fill="#C4C4C4"/>
</mask>
<g mask="url(#mask5_205_4046)">
<path d="M-2.20703 1336.43L-359.014 -67.9177" stroke="#F5F5F5" stroke-width="97.8662"/>
<path d="M389.341 1236.95L32.5337 -167.399" stroke="#F5F5F5" stroke-width="97.8662"/>
<path d="M154.413 1296.64L-202.394 -107.71" stroke="#F5F5F5" stroke-width="97.8662"/>
<path d="M545.96 1197.16L189.153 -207.191" stroke="#F5F5F5" stroke-width="97.8662"/>
<path d="M702.579 1157.37L345.772 -246.984" stroke="#F5F5F5" stroke-width="97.8662"/>
<path d="M859.199 1117.57L502.392 -286.777" stroke="#F5F5F5" stroke-width="97.8662"/>
</g>
<mask id="mask6_205_4046" style="mask-type:alpha" maskUnits="userSpaceOnUse" x="-428" y="-667" width="1412" height="1380">
<rect x="-346.791" y="712.293" width="115.085" height="1857.75" transform="rotate(-134.256 -346.791 712.293)" fill="#C4C4C4"/>
</mask>
<g mask="url(#mask6_205_4046)">
<path d="M-304.392 828.49L187.887 -374.152" stroke="#F5F5F5" stroke-width="52.1953"/>
<path d="M-80.4268 771.588L411.852 -431.054" stroke="#F5F5F5" stroke-width="52.1953"/>
<path d="M-214.806 805.729L277.473 -396.912" stroke="#F5F5F5" stroke-width="52.1953"/>
<path d="M9.16406 748.824L501.443 -453.818" stroke="#F5F5F5" stroke-width="52.1953"/>
<path d="M98.749 726.063L591.028 -476.578" stroke="#F5F5F5" stroke-width="52.1953"/>
<path d="M188.96 703.144L681.239 -499.498" stroke="#F5F5F5" stroke-width="52.1953"/>
</g>
<mask id="mask7_205_4046" style="mask-type:alpha" maskUnits="userSpaceOnUse" x="-462" y="-777" width="1284" height="1261">
<rect x="-275.562" y="483.326" width="266.272" height="1532.19" transform="rotate(-134.256 -275.562 483.326)" fill="#C4C4C4"/>
</mask>
<g mask="url(#mask7_205_4046)">
<path d="M32.2031 771.916L-324.604 -632.435" stroke="#F5F5F5" stroke-width="97.8662"/>
<path d="M423.751 672.435L66.9438 -731.917" stroke="#F5F5F5" stroke-width="97.8662"/>
<path d="M188.823 732.125L-167.984 -672.226" stroke="#F5F5F5" stroke-width="97.8662"/>
<path d="M580.37 632.642L223.563 -771.71" stroke="#F5F5F5" stroke-width="97.8662"/>
<path d="M736.99 592.849L380.183 -811.503" stroke="#F5F5F5" stroke-width="97.8662"/>
<path d="M893.609 553.057L536.802 -851.295" stroke="#F5F5F5" stroke-width="97.8662"/>
</g>
</g>
</g>
<defs>
<clipPath id="clip0_205_4046">
<rect width="1344" height="728" fill="white"/>
</clipPath>
<clipPath id="clip1_205_4046">
<rect width="1210" height="574.898" fill="white" transform="translate(589.795 -310) rotate(15)"/>
</clipPath>
<clipPath id="clip2_205_4046">
<rect width="1210" height="574.898" fill="white" transform="translate(-415.205 -454) rotate(15)"/>
</clipPath>
</defs>
</svg>
