<svg width="1344" height="728" viewBox="0 0 1344 728" fill="none" xmlns="http://www.w3.org/2000/svg">
<g clip-path="url(#clip0_205_4046)">
<g clip-path="url(#clip1_205_4046)">
<rect width="1210" height="654.776" transform="translate(-15.5312 248) rotate(15)" fill="#D80E22"/>
<mask id="mask0_205_4046" style="mask-type:alpha" maskUnits="userSpaceOnUse" x="-236" y="-876" width="1493" height="1475">
<rect x="158.685" y="598.552" width="564.699" height="1532.19" transform="rotate(-134.256 158.685 598.552)" fill="#C4C4C4"/>
</mask>
<g mask="url(#mask0_205_4046)">
<path d="M258.197 673.409L-98.6099 -730.942" stroke="#F5F5F5" stroke-width="97.8662"/>
<path d="M649.745 573.928L292.938 -830.424" stroke="#F5F5F5" stroke-width="97.8662"/>
<path d="M414.817 633.617L58.0102 -770.734" stroke="#F5F5F5" stroke-width="97.8662"/>
<path d="M806.364 534.136L449.557 -870.216" stroke="#F5F5F5" stroke-width="97.8662"/>
<path d="M962.983 494.343L606.176 -910.009" stroke="#F5F5F5" stroke-width="97.8662"/>
</g>
<mask id="mask1_205_4046" style="mask-type:alpha" maskUnits="userSpaceOnUse" x="-56" y="267" width="1493" height="1474">
<rect x="338.61" y="1740.89" width="564.699" height="1532.19" transform="rotate(-134.256 338.61 1740.89)" fill="#C4C4C4"/>
</mask>
<g mask="url(#mask1_205_4046)">
<path d="M438.123 1815.75L81.3159 411.394" stroke="#F5F5F5" stroke-width="97.8662"/>
<path d="M829.671 1716.26L472.864 311.912" stroke="#F5F5F5" stroke-width="97.8662"/>
<path d="M594.743 1775.95L237.936 371.602" stroke="#F5F5F5" stroke-width="97.8662"/>
<path d="M986.29 1676.47L629.483 272.12" stroke="#F5F5F5" stroke-width="97.8662"/>
<path d="M1142.91 1636.68L786.102 232.327" stroke="#F5F5F5" stroke-width="97.8662"/>
<path d="M1299.53 1596.89L942.722 192.534" stroke="#F5F5F5" stroke-width="97.8662"/>
</g>
<mask id="mask2_205_4046" style="mask-type:alpha" maskUnits="userSpaceOnUse" x="13" y="-188" width="1412" height="1380">
<rect x="93.5391" y="1191.6" width="115.085" height="1857.75" transform="rotate(-134.256 93.5391 1191.6)" fill="#C4C4C4"/>
</mask>
<g mask="url(#mask2_205_4046)">
<path d="M135.938 1307.8L628.217 105.16" stroke="#F5F5F5" stroke-width="52.1953"/>
<path d="M359.903 1250.9L852.182 48.2575" stroke="#F5F5F5" stroke-width="52.1953"/>
<path d="M225.524 1285.04L717.803 82.3991" stroke="#F5F5F5" stroke-width="52.1953"/>
<path d="M449.494 1228.14L941.773 25.4938" stroke="#F5F5F5" stroke-width="52.1953"/>
<path d="M539.079 1205.38L1031.36 2.73311" stroke="#F5F5F5" stroke-width="52.1953"/>
<path d="M629.29 1182.46L1121.57 -20.1868" stroke="#F5F5F5" stroke-width="52.1953"/>
</g>
<mask id="mask3_205_4046" style="mask-type:alpha" maskUnits="userSpaceOnUse" x="-22" y="-298" width="1285" height="1261">
<rect x="164.768" y="962.638" width="266.272" height="1532.19" transform="rotate(-134.256 164.768 962.638)" fill="#C4C4C4"/>
</mask>
<g mask="url(#mask3_205_4046)">
<path d="M472.533 1251.23L115.726 -153.124" stroke="#F5F5F5" stroke-width="97.8662"/>
<path d="M864.081 1151.75L507.274 -252.605" stroke="#F5F5F5" stroke-width="97.8662"/>
<path d="M629.153 1211.44L272.346 -192.915" stroke="#F5F5F5" stroke-width="97.8662"/>
<path d="M1020.7 1111.95L663.893 -292.398" stroke="#F5F5F5" stroke-width="97.8662"/>
<path d="M1177.32 1072.16L820.513 -332.191" stroke="#F5F5F5" stroke-width="97.8662"/>
<path d="M1333.94 1032.37L977.132 -371.983" stroke="#F5F5F5" stroke-width="97.8662"/>
</g>
</g>
<g clip-path="url(#clip2_205_4046)">
<rect width="1210" height="654.776" transform="translate(638.469 288) rotate(15)" fill="#D80E22"/>
<mask id="mask4_205_4046" style="mask-type:alpha" maskUnits="userSpaceOnUse" x="-85" y="-897" width="1492" height="1475">
<rect x="309.354" y="577.24" width="564.699" height="1532.19" transform="rotate(-134.256 309.354 577.24)" fill="#C4C4C4"/>
</mask>
<g mask="url(#mask4_205_4046)">
<path d="M800.415 552.616L443.608 -851.735" stroke="#F5F5F5" stroke-width="97.8662"/>
<path d="M565.487 612.306L208.68 -792.046" stroke="#F5F5F5" stroke-width="97.8662"/>
<path d="M957.034 512.824L600.227 -891.527" stroke="#F5F5F5" stroke-width="97.8662"/>
<path d="M1113.65 473.031L756.846 -931.32" stroke="#F5F5F5" stroke-width="97.8662"/>
</g>
<mask id="mask5_205_4046" style="mask-type:alpha" maskUnits="userSpaceOnUse" x="95" y="245" width="1492" height="1475">
<rect x="489.28" y="1719.58" width="564.699" height="1532.19" transform="rotate(-134.256 489.28 1719.58)" fill="#C4C4C4"/>
</mask>
<g mask="url(#mask5_205_4046)">
<path d="M588.793 1794.43L231.986 390.082" stroke="#F5F5F5" stroke-width="97.8662"/>
<path d="M980.341 1694.95L623.534 290.601" stroke="#F5F5F5" stroke-width="97.8662"/>
<path d="M745.413 1754.64L388.606 350.29" stroke="#F5F5F5" stroke-width="97.8662"/>
<path d="M1136.96 1655.16L780.153 250.809" stroke="#F5F5F5" stroke-width="97.8662"/>
<path d="M1293.58 1615.37L936.772 211.016" stroke="#F5F5F5" stroke-width="97.8662"/>
<path d="M1450.2 1575.57L1093.39 171.223" stroke="#F5F5F5" stroke-width="97.8662"/>
</g>
<mask id="mask6_205_4046" style="mask-type:alpha" maskUnits="userSpaceOnUse" x="163" y="-209" width="1412" height="1380">
<rect x="244.209" y="1170.29" width="115.085" height="1857.75" transform="rotate(-134.256 244.209 1170.29)" fill="#C4C4C4"/>
</mask>
<g mask="url(#mask6_205_4046)">
<path d="M286.608 1286.49L778.887 83.8483" stroke="#F5F5F5" stroke-width="52.1953"/>
<path d="M510.573 1229.59L1002.85 26.946" stroke="#F5F5F5" stroke-width="52.1953"/>
<path d="M376.194 1263.73L868.473 61.0876" stroke="#F5F5F5" stroke-width="52.1953"/>
<path d="M600.164 1206.82L1092.44 4.18232" stroke="#F5F5F5" stroke-width="52.1953"/>
<path d="M689.749 1184.06L1182.03 -18.5784" stroke="#F5F5F5" stroke-width="52.1953"/>
<path d="M779.96 1161.14L1272.24 -41.4983" stroke="#F5F5F5" stroke-width="52.1953"/>
</g>
<mask id="mask7_205_4046" style="mask-type:alpha" maskUnits="userSpaceOnUse" x="129" y="-319" width="1284" height="1261">
<rect x="315.438" y="941.326" width="266.272" height="1532.19" transform="rotate(-134.256 315.438 941.326)" fill="#C4C4C4"/>
</mask>
<g mask="url(#mask7_205_4046)">
<path d="M623.203 1229.92L266.396 -174.435" stroke="#F5F5F5" stroke-width="97.8662"/>
<path d="M1014.75 1130.43L657.944 -273.917" stroke="#F5F5F5" stroke-width="97.8662"/>
<path d="M779.823 1190.12L423.016 -214.226" stroke="#F5F5F5" stroke-width="97.8662"/>
<path d="M1171.37 1090.64L814.563 -313.71" stroke="#F5F5F5" stroke-width="97.8662"/>
<path d="M1327.99 1050.85L971.183 -353.503" stroke="#F5F5F5" stroke-width="97.8662"/>
<path d="M1484.61 1011.06L1127.8 -393.295" stroke="#F5F5F5" stroke-width="97.8662"/>
</g>
</g>
</g>
<defs>
<clipPath id="clip0_205_4046">
<rect width="1344" height="728" fill="white"/>
</clipPath>
<clipPath id="clip1_205_4046">
<rect width="1210" height="654.776" fill="white" transform="translate(-15.5312 248) rotate(15)"/>
</clipPath>
<clipPath id="clip2_205_4046">
<rect width="1210" height="654.776" fill="white" transform="translate(638.469 288) rotate(15)"/>
</clipPath>
</defs>
</svg>
