<svg width="198" height="59" viewBox="0 0 198 59" fill="none" xmlns="http://www.w3.org/2000/svg">
<path d="M18.8283 2.58203V1.32093L17.7333 1.94661L2.6369 10.5731L1.53907 11.2005L2.62989 11.8399L7.95382 14.9608V54.9294V55.6612H8.68566H18.0964H18.8283V54.9294V2.58203Z" fill="white" stroke="white" stroke-width="1.46369"/>
<mask id="path-2-outside-1_234_4571" maskUnits="userSpaceOnUse" x="21.3721" y="0.780273" width="100" height="58" fill="black">
<rect fill="white" x="21.3721" y="0.780273" width="100" height="58"/>
<path fill-rule="evenodd" clip-rule="evenodd" d="M24.3721 29.6401L71.0337 2.78027L118.087 29.6401L71.0337 56.696L24.3721 29.6401ZM41.0369 29.64L70.6416 12.5831L102.011 29.64L70.6416 47.0891L41.0369 29.64Z"/>
</mask>
<path fill-rule="evenodd" clip-rule="evenodd" d="M24.3721 29.6401L71.0337 2.78027L118.087 29.6401L71.0337 56.696L24.3721 29.6401ZM41.0369 29.64L70.6416 12.5831L102.011 29.64L70.6416 47.0891L41.0369 29.64Z" fill="white"/>
<path d="M71.0337 2.78027L71.7593 1.50911L71.0307 1.09316L70.3035 1.51174L71.0337 2.78027ZM24.3721 29.6401L23.6419 28.3716L21.4461 29.6355L23.6379 30.9064L24.3721 29.6401ZM118.087 29.6401L118.817 30.909L121.032 29.6355L118.813 28.369L118.087 29.6401ZM71.0337 56.696L70.2995 57.9623L71.0307 58.3862L71.7633 57.9649L71.0337 56.696ZM70.6416 12.5831L71.3408 11.2972L70.6209 10.9057L69.9109 11.3148L70.6416 12.5831ZM41.0369 29.64L40.3062 28.3718L38.13 29.6257L40.2937 30.901L41.0369 29.64ZM102.011 29.64L102.722 30.9192L105.048 29.6255L102.71 28.3542L102.011 29.64ZM70.6416 47.0891L69.8984 48.3501L70.6205 48.7757L71.3531 48.3683L70.6416 47.0891ZM70.3035 1.51174L23.6419 28.3716L25.1023 30.9087L71.7639 4.04881L70.3035 1.51174ZM118.813 28.369L71.7593 1.50911L70.3081 4.05144L117.362 30.9113L118.813 28.369ZM71.7633 57.9649L118.817 30.909L117.358 28.3713L70.3041 55.4272L71.7633 57.9649ZM23.6379 30.9064L70.2995 57.9623L71.7679 55.4298L25.1063 28.3739L23.6379 30.9064ZM69.9109 11.3148L40.3062 28.3718L41.7676 30.9083L71.3723 13.8513L69.9109 11.3148ZM102.71 28.3542L71.3408 11.2972L69.9424 13.8689L101.312 30.9259L102.71 28.3542ZM71.3531 48.3683L102.722 30.9192L101.299 28.3609L69.9301 45.81L71.3531 48.3683ZM40.2937 30.901L69.8984 48.3501L71.3848 45.8282L41.7801 28.3791L40.2937 30.901Z" fill="white" mask="url(#path-2-outside-1_234_4571)"/>
<mask id="path-4-outside-2_234_4571" maskUnits="userSpaceOnUse" x="98.0254" y="0.780273" width="100" height="58" fill="black">
<rect fill="white" x="98.0254" y="0.780273" width="100" height="58"/>
<path fill-rule="evenodd" clip-rule="evenodd" d="M101.025 29.6401L147.687 2.78027L194.741 29.6401L147.687 56.696L101.025 29.6401ZM117.69 29.64L147.295 12.5831L178.664 29.64L147.295 47.0891L117.69 29.64Z"/>
</mask>
<path fill-rule="evenodd" clip-rule="evenodd" d="M101.025 29.6401L147.687 2.78027L194.741 29.6401L147.687 56.696L101.025 29.6401ZM117.69 29.64L147.295 12.5831L178.664 29.64L147.295 47.0891L117.69 29.64Z" fill="white"/>
<path d="M147.687 2.78027L148.413 1.50911L147.684 1.09316L146.957 1.51174L147.687 2.78027ZM101.025 29.6401L100.295 28.3716L98.0995 29.6355L100.291 30.9064L101.025 29.6401ZM194.741 29.6401L195.47 30.909L197.685 29.6355L195.466 28.369L194.741 29.6401ZM147.687 56.696L146.953 57.9623L147.684 58.3862L148.417 57.9649L147.687 56.696ZM147.295 12.5831L147.994 11.2972L147.274 10.9057L146.564 11.3148L147.295 12.5831ZM117.69 29.64L116.96 28.3718L114.783 29.6257L116.947 30.901L117.69 29.64ZM178.664 29.64L179.376 30.9192L181.701 29.6255L179.363 28.3542L178.664 29.64ZM147.295 47.0891L146.552 48.3501L147.274 48.7757L148.006 48.3683L147.295 47.0891ZM146.957 1.51174L100.295 28.3716L101.756 30.9087L148.417 4.04881L146.957 1.51174ZM195.466 28.369L148.413 1.50911L146.961 4.05144L194.015 30.9113L195.466 28.369ZM148.417 57.9649L195.47 30.909L194.011 28.3713L146.957 55.4272L148.417 57.9649ZM100.291 30.9064L146.953 57.9623L148.421 55.4298L101.76 28.3739L100.291 30.9064ZM146.564 11.3148L116.96 28.3718L118.421 30.9083L148.026 13.8513L146.564 11.3148ZM179.363 28.3542L147.994 11.2972L146.596 13.8689L177.965 30.9259L179.363 28.3542ZM148.006 48.3683L179.376 30.9192L177.953 28.3609L146.583 45.81L148.006 48.3683ZM116.947 30.901L146.552 48.3501L148.038 45.8282L118.433 28.3791L116.947 30.901Z" fill="white" mask="url(#path-4-outside-2_234_4571)"/>
</svg>
